<svg width="100%" height="100%" viewBox="0 0 1750 1750" xmlns="http://www.w3.org/2000/svg"><path d="M809.553,876.71l871.079,756.126c39.007,-50.159 60.5,-112.145 60.5,-176.347l-0,-1164.72c-0,-60.271 -18.941,-118.589 -53.531,-167l-878.048,751.944Z" style="fill:#ff7a00;"/><path d="M1537.68,1731.25l-849.153,-750.899l-228.66,195.821l-0,-442.063l812.224,-729.605l-982.945,0c-76.186,0 -149.252,30.265 -203.124,84.137c-53.872,53.872 -84.137,126.938 -84.137,203.124l0,1164.72c0,76.186 30.265,149.252 84.137,203.124c53.872,53.872 126.938,84.137 203.124,84.137l1164.72,0c28.661,0 56.881,-4.283 83.811,-12.499Z" style="fill:#efe8c7;"/></svg>
